<?xml version="1.0" encoding="UTF-8"?>
<svg xmlns="http://www.w3.org/2000/svg" width="29" height="30" viewBox="0 0 29 30" fill="none">
  <path fill-rule="evenodd" clip-rule="evenodd" d="M28.4167 28.4167L28.4167 19.375L19.375 19.375L19.375 28.4167L28.4167 28.4167ZM5.52443e-06 4.52083C5.4153e-06 7.01762 2.02405 9.04166 4.52084 9.04166C7.01763 9.04167 9.04167 7.01762 9.04167 4.52083C9.04167 2.02404 7.01763 -9.35382e-07 4.52084 -1.04452e-06C2.02405 -1.15366e-06 5.63357e-06 2.02404 5.52443e-06 4.52083Z" fill="black"></path>
  <path fill-rule="evenodd" clip-rule="evenodd" d="M11.8468 6.64355L21.5132 6.64355C22.9967 6.64355 24.1994 7.8462 24.1994 9.32975C24.1994 10.8133 22.9967 12.0159 21.5132 12.0159L7.21555 12.0159C3.35087 12.0159 0.217937 15.1489 0.217937 19.0136C0.217937 22.8782 3.35088 26.0112 7.21556 26.0112L13.1102 26.0112L11.3332 29.0151L14.9299 29.0151L17.8896 24.0117L17.8908 24.0117L17.8902 24.0107L17.8908 24.0098L17.8896 24.0098L14.9299 19.0063L11.3332 19.0063L13.1107 22.0112L7.21556 22.0112C5.56002 22.0112 4.21794 20.6691 4.21794 19.0136C4.21794 17.358 5.56001 16.0159 7.21555 16.0159L21.5132 16.0159C25.2058 16.0159 28.1994 13.0224 28.1994 9.32975C28.1994 5.63706 25.2058 2.64355 21.5132 2.64355L11.8468 2.64355L11.8468 6.64355Z" fill="black"></path>
</svg>
