<?xml version="1.0" encoding="UTF-8"?>
<svg xmlns="http://www.w3.org/2000/svg" width="32" height="32" viewBox="0 0 32 32" fill="none">
  <g clip-path="url(#clip0_157_1510)">
    <path fill-rule="evenodd" clip-rule="evenodd" d="M10.9997 26.6183C10.9997 24.1331 8.98503 22.1185 6.49984 22.1185C4.01464 22.1185 2 24.1331 2 26.6183C2 29.1035 4.01464 31.1182 6.49984 31.1182C8.98503 31.1182 10.9997 29.1035 10.9997 26.6183Z" fill="black"></path>
    <path d="M20 31.1602L20 22.1185L29.0417 22.1185L29.0417 31.1602L20 31.1602Z" fill="black"></path>
    <path fill-rule="evenodd" clip-rule="evenodd" d="M17.209 5.46009L21.0001 7.55758L21.0001 3.96091L15.6505 1.00116L15.6505 1L15.6495 1.00058L15.6484 1L15.6484 1.00116L10.2988 3.96091L10.2988 7.55758L14.0088 5.50498L14.0088 7.26747C14.0088 9.25564 11.795 11.0696 9.92827 11.91C6.93077 13.2525 5 15.1051 5 18.2821L5 20.1304L8.20018 20.1304L8.20018 18.2821C8.20018 16.2939 9.40558 15.5378 11.2723 14.6975C12.6271 14.0928 14.7662 12.5296 15.6089 11.4126C16.4516 12.5296 18.5907 14.0928 19.9454 14.6975C21.8122 15.5378 23.0176 16.2939 23.0176 18.2821L23.0176 20.1304L26.2178 20.1304L26.2178 18.2821C26.2178 15.1051 24.287 13.2525 21.2895 11.91C19.4227 11.0696 17.209 9.25564 17.209 7.26747L17.209 5.46009Z" fill="black"></path>
  </g>
  <defs>
    <clipPath id="clip0_157_1510">
      <rect width="32" height="32" fill="white" transform="translate(0 32) rotate(-90)"></rect>
    </clipPath>
  </defs>
</svg>
